# xmcd
#
# Track frame offsets:
#	150
#	16432
#	33835
#	53400
#	77142
#	108215
#	124340
#	147390
#	175902
#	193115
#
# Disc length: 2777 seconds
#
# Revision: 1
# Processed by: cddbd v1.4PL0 Copyright (c) Steve Scherf et al.
# Submitted via: audiograbber 1.81.03
#
DISCID=800ad70a
DTITLE=Blue Messengers - Blues To Gray
DYEAR=2000
DGENRE=Blues
TTITLE0=Color and Kind
TTITLE1=All The Way
TTITLE2=No Other Man
TTITLE3=Blues To Gray
TTITLE4=Love's Merry Go Round
TTITLE5=Crossroads
TTITLE6=Don't Let The Sun Catch You Cryin'
TTITLE7=In Love Again
TTITLE8=I Want You
TTITLE9=Bright Lights, Big City
EXTD=
EXTT0=
EXTT1=
EXTT2=
EXTT3=
EXTT4=
EXTT5=
EXTT6=
EXTT7=
EXTT8=
EXTT9=
PLAYORDER=
